<svg width="36" height="26" viewBox="0 0 36 26" fill="none" xmlns="http://www.w3.org/2000/svg">
    <path d="M8.66249 10.7501L33.75 10.7501C34.3875 10.7501 34.9215 10.9661 35.352 11.3981C35.7825 11.8301 35.9985 12.3641 36 13.0001C36.0015 13.6361 35.7855 14.1701 35.352 14.6021C34.9185 15.0341 34.3845 15.2501 33.75 15.2501L8.66249 15.2501L15.075 21.6626C15.525 22.1126 15.741 22.6376 15.723 23.2376C15.705 23.8376 15.489 24.3626 15.075 24.8126C14.625 25.2626 14.0902 25.4966 13.4707 25.5146C12.8512 25.5326 12.3172 25.3173 11.8687 24.8688L1.575 14.5751C1.35 14.3501 1.19025 14.1063 1.09575 13.8438C1.00125 13.5813 0.954742 13.3001 0.956242 13.0001C0.957742 12.7001 1.00425 12.4188 1.09575 12.1563C1.18725 11.8938 1.347 11.6501 1.575 11.4251L11.8687 1.13133C12.3187 0.681334 12.8527 0.465334 13.4707 0.483334C14.0887 0.501334 14.6235 0.736084 15.075 1.18758C15.4875 1.63758 15.7035 2.16258 15.723 2.76258C15.7425 3.36258 15.5265 3.88758 15.075 4.33758L8.66249 10.7501Z" fill="#DDDDDD" fill-opacity="0.866667"/>
</svg>