<svg width="22" height="25" viewBox="0 0 22 25" fill="none" xmlns="http://www.w3.org/2000/svg">
    <path d="M1.83333 12.6963C1.83379 10.5035 2.49469 8.37164 3.71431 6.6288C4.93394 4.88596 6.6447 3.62874 8.5833 3.05063C10.5219 2.47252 12.5809 2.60556 14.4434 3.42928C16.3059 4.25299 17.8687 5.72173 18.8913 7.60945C19.9139 9.49717 20.3396 11.6992 20.1028 13.8768C19.8661 16.0543 18.9801 18.0866 17.5811 19.6609C16.1821 21.2352 14.3478 22.2642 12.3603 22.5896C10.3729 22.9151 8.3425 22.5188 6.58166 21.4619L3.01766 22.6461C2.8587 22.6989 2.68956 22.7036 2.52833 22.6597C2.36711 22.6157 2.21987 22.5248 2.10237 22.3966C1.98486 22.2683 1.90151 22.1077 1.86122 21.9318C1.82094 21.7559 1.82524 21.5713 1.87366 21.3979L2.959 17.5032C2.21973 16.0295 1.8326 14.3763 1.83333 12.6963ZM7.33333 11.6961C7.33333 11.9614 7.42991 12.2158 7.60181 12.4034C7.77372 12.5909 8.00688 12.6963 8.25 12.6963H13.75C13.9931 12.6963 14.2263 12.5909 14.3982 12.4034C14.5701 12.2158 14.6667 11.9614 14.6667 11.6961C14.6667 11.4309 14.5701 11.1765 14.3982 10.9889C14.2263 10.8013 13.9931 10.6959 13.75 10.6959H8.25C8.00688 10.6959 7.77372 10.8013 7.60181 10.9889C7.42991 11.1765 7.33333 11.4309 7.33333 11.6961ZM8.25 14.6967C8.00688 14.6967 7.77372 14.802 7.60181 14.9896C7.42991 15.1772 7.33333 15.4316 7.33333 15.6968C7.33333 15.9621 7.42991 16.2165 7.60181 16.4041C7.77372 16.5916 8.00688 16.697 8.25 16.697H11.9167C12.1598 16.697 12.3929 16.5916 12.5648 16.4041C12.7368 16.2165 12.8333 15.9621 12.8333 15.6968C12.8333 15.4316 12.7368 15.1772 12.5648 14.9896C12.3929 14.802 12.1598 14.6967 11.9167 14.6967H8.25Z" fill="#0A2412"/>
</svg>
