<svg width="24" height="24" viewBox="0 0 24 24" fill="none" xmlns="http://www.w3.org/2000/svg">
    <path d="M6 7.1275V16.75C5.99985 17.7021 6.36185 18.6186 7.01256 19.3136C7.66327 20.0086 8.55397 20.43 9.504 20.4925L9.75 20.5H16.371C16.2159 20.9386 15.9287 21.3184 15.5488 21.587C15.169 21.8557 14.7152 21.9999 14.25 22H9C7.80653 22 6.66193 21.5259 5.81802 20.682C4.97411 19.8381 4.5 18.6935 4.5 17.5V9.25C4.49976 8.78451 4.64389 8.3304 4.91254 7.95026C5.18119 7.57012 5.56113 7.28266 6 7.1275ZM17.25 4C17.8467 4 18.419 4.23705 18.841 4.65901C19.2629 5.08097 19.5 5.65326 19.5 6.25V16.75C19.5 17.3467 19.2629 17.919 18.841 18.341C18.419 18.7629 17.8467 19 17.25 19H9.75C9.15326 19 8.58097 18.7629 8.15901 18.341C7.73705 17.919 7.5 17.3467 7.5 16.75V6.25C7.5 5.65326 7.73705 5.08097 8.15901 4.65901C8.58097 4.23705 9.15326 4 9.75 4H17.25ZM17.25 5.5H9.75C9.55109 5.5 9.36032 5.57902 9.21967 5.71967C9.07902 5.86032 9 6.05109 9 6.25V16.75C9 16.9489 9.07902 17.1397 9.21967 17.2803C9.36032 17.421 9.55109 17.5 9.75 17.5H17.25C17.4489 17.5 17.6397 17.421 17.7803 17.2803C17.921 17.1397 18 16.9489 18 16.75V6.25C18 6.05109 17.921 5.86032 17.7803 5.71967C17.6397 5.57902 17.4489 5.5 17.25 5.5Z" fill="#DDDDDD"/>
    <path d="M6 7.1275V16.75C5.99985 17.7021 6.36185 18.6186 7.01256 19.3136C7.66327 20.0086 8.55397 20.43 9.504 20.4925L9.75 20.5H16.371C16.2159 20.9386 15.9287 21.3184 15.5488 21.587C15.169 21.8557 14.7152 21.9999 14.25 22H9C7.80653 22 6.66193 21.5259 5.81802 20.682C4.97411 19.8381 4.5 18.6935 4.5 17.5V9.25C4.49976 8.78451 4.64389 8.3304 4.91254 7.95026C5.18119 7.57012 5.56113 7.28266 6 7.1275ZM17.25 4C17.8467 4 18.419 4.23705 18.841 4.65901C19.2629 5.08097 19.5 5.65326 19.5 6.25V16.75C19.5 17.3467 19.2629 17.919 18.841 18.341C18.419 18.7629 17.8467 19 17.25 19H9.75C9.15326 19 8.58097 18.7629 8.15901 18.341C7.73705 17.919 7.5 17.3467 7.5 16.75V6.25C7.5 5.65326 7.73705 5.08097 8.15901 4.65901C8.58097 4.23705 9.15326 4 9.75 4H17.25ZM17.25 5.5H9.75C9.55109 5.5 9.36032 5.57902 9.21967 5.71967C9.07902 5.86032 9 6.05109 9 6.25V16.75C9 16.9489 9.07902 17.1397 9.21967 17.2803C9.36032 17.421 9.55109 17.5 9.75 17.5H17.25C17.4489 17.5 17.6397 17.421 17.7803 17.2803C17.921 17.1397 18 16.9489 18 16.75V6.25C18 6.05109 17.921 5.86032 17.7803 5.71967C17.6397 5.57902 17.4489 5.5 17.25 5.5Z" fill="black" fill-opacity="0.2"/>
</svg>