<svg width="34" height="34" viewBox="0 0 34 34" fill="none" xmlns="http://www.w3.org/2000/svg">
    <path fill-rule="evenodd" clip-rule="evenodd" d="M15.6627 0.553047C16.0174 0.198931 16.4984 0 17 0C17.5016 0 17.9826 0.198931 18.3373 0.553047L29.6861 11.8865L33.469 15.6643C33.8136 16.0206 34.0042 16.4977 33.9999 16.993C33.9956 17.4883 33.7967 17.962 33.446 18.3122C33.0953 18.6625 32.6209 18.8611 32.125 18.8654C31.629 18.8697 31.1512 18.6793 30.7945 18.3353L30.2403 17.7818V30.2222C30.2403 31.2241 29.8417 32.185 29.1323 32.8935C28.4229 33.602 27.4607 34 26.4574 34H20.7829C20.2813 34 19.8002 33.801 19.4455 33.4468C19.0908 33.0925 18.8915 32.6121 18.8915 32.1111V26.4444H15.1085V32.1111C15.1085 32.6121 14.9092 33.0925 14.5545 33.4468C14.1998 33.801 13.7187 34 13.2171 34H7.54264C6.53934 34 5.57714 33.602 4.8677 32.8935C4.15826 32.185 3.7597 31.2241 3.7597 30.2222V17.7818L3.2055 18.3353C2.84876 18.6793 2.37097 18.8697 1.87504 18.8654C1.3791 18.8611 0.904693 18.6625 0.553999 18.3122C0.203305 17.962 0.00438107 17.4883 7.15026e-05 16.993C-0.00423806 16.4977 0.186412 16.0206 0.530958 15.6643L4.3139 11.8865L15.6627 0.553047Z" fill="#050505"/>
</svg>