<svg width="22" height="25" viewBox="0 0 22 25" fill="none" xmlns="http://www.w3.org/2000/svg">
    <path d="M6.64583 8.83665C6.64583 8.50507 6.76655 8.18707 6.98144 7.95261C7.19632 7.71815 7.48777 7.58643 7.79166 7.58643C8.09556 7.58643 8.387 7.71815 8.60189 7.95261C8.81677 8.18707 8.93749 8.50507 8.93749 8.83665C8.93749 9.16823 8.81677 9.48623 8.60189 9.7207C8.387 9.95516 8.09556 10.0869 7.79166 10.0869C7.48777 10.0869 7.19632 9.95516 6.98144 9.7207C6.76655 9.48623 6.64583 9.16823 6.64583 8.83665Z" fill="#0A2412"/>
    <path d="M8.58642 3.08545H13.4136C14.4146 3.08545 15.2084 3.08545 15.8473 3.14246C16.5018 3.20047 17.0546 3.32249 17.5606 3.60254C18.3798 4.05847 19.0456 4.78568 19.4627 5.67992C19.7203 6.23002 19.8321 6.83413 19.8853 7.54826C19.9375 8.24538 19.9375 9.11154 19.9375 10.2037V15.4707C19.9375 16.5629 19.9375 17.429 19.8853 18.1262C19.8321 18.8403 19.7203 19.4434 19.4636 19.9955C19.046 20.8892 18.3798 21.6156 17.5606 22.0709C17.0546 22.3519 16.5018 22.474 15.8473 22.532C15.2084 22.589 14.4146 22.589 13.4136 22.589H8.58642C7.58542 22.589 6.79158 22.589 6.15267 22.532C5.49817 22.474 4.94542 22.3519 4.44033 22.0719C3.62096 21.6164 2.9548 20.8895 2.53733 19.9955C2.27975 19.4434 2.16792 18.8403 2.11567 18.1262C2.0625 17.429 2.0625 16.5629 2.0625 15.4707V10.2037C2.0625 9.11154 2.0625 8.24538 2.11475 7.54826C2.16792 6.83413 2.27975 6.23102 2.53642 5.67992C2.95412 4.78574 3.62062 4.05887 4.44033 3.60354C4.9445 3.32249 5.49817 3.20047 6.15267 3.14246C6.79158 3.08545 7.58542 3.08545 8.58642 3.08545ZM3.4375 14.5905V15.4377C3.4375 16.5709 3.4375 17.375 3.48517 18.0041C3.531 18.6243 3.61992 19.0093 3.762 19.3144C4.0476 19.9259 4.50325 20.423 5.06367 20.7346C5.34325 20.8897 5.69617 20.9857 6.2645 21.0367C6.62108 21.0687 7.03908 21.0807 7.5515 21.0857C7.50933 19.6934 7.70458 18.3752 8.09508 17.165C7.06842 15.5587 5.3625 14.5235 3.4375 14.5905ZM18.5634 11.506C13.189 11.0129 8.73033 15.3807 8.92833 21.0887H13.3833C14.4219 21.0887 15.1589 21.0887 15.7355 21.0367C16.3038 20.9867 16.6568 20.8897 16.9363 20.7346C17.4968 20.423 17.9524 19.9259 18.238 19.3144C18.3801 19.0093 18.4681 18.6243 18.5148 18.0041C18.5625 17.374 18.5625 16.5699 18.5625 15.4377L18.5634 11.506ZM5.27083 8.83649C5.27083 9.56597 5.53642 10.2656 6.00917 10.7814C6.48192 11.2972 7.1231 11.587 7.79167 11.587C8.46023 11.587 9.10142 11.2972 9.57417 10.7814C10.0469 10.2656 10.3125 9.56597 10.3125 8.83649C10.3125 8.10701 10.0469 7.40741 9.57417 6.89159C9.10142 6.37577 8.46023 6.08599 7.79167 6.08599C7.1231 6.08599 6.48192 6.37577 6.00917 6.89159C5.53642 7.40741 5.27083 8.10701 5.27083 8.83649ZM6.64583 8.83649C6.64583 8.50491 6.76655 8.18691 6.98144 7.95245C7.19633 7.71798 7.48777 7.58626 7.79167 7.58626C8.09556 7.58626 8.38701 7.71798 8.60189 7.95245C8.81678 8.18691 8.9375 8.50491 8.9375 8.83649C8.9375 9.16807 8.81678 9.48607 8.60189 9.72053C8.38701 9.95499 8.09556 10.0867 7.79167 10.0867C7.48777 10.0867 7.19633 9.95499 6.98144 9.72053C6.76655 9.48607 6.64583 9.16807 6.64583 8.83649Z" fill="#0A2412"/>
</svg>
