<svg width="24" height="24" viewBox="0 0 24 24" fill="none" xmlns="http://www.w3.org/2000/svg">
    <path d="M20.9099 11.1198C20.9099 16.0098 17.3599 20.5898 12.5099 21.9298C12.1799 22.0198 11.8198 22.0198 11.4898 21.9298C6.63984 20.5898 3.08984 16.0098 3.08984 11.1198V6.72979C3.08984 5.90979 3.70986 4.97979 4.47986 4.66979L10.0498 2.38982C11.2998 1.87982 12.7098 1.87982 13.9598 2.38982L19.5298 4.66979C20.2898 4.97979 20.9199 5.90979 20.9199 6.72979L20.9099 11.1198Z" stroke="#DDDDDD" stroke-width="1.5" stroke-linecap="round" stroke-linejoin="round"/>
    <path d="M10.6602 14.2301C10.4702 14.2301 10.2802 14.1601 10.1302 14.0101L8.52023 12.4001C8.23023 12.1101 8.23023 11.6301 8.52023 11.3401C8.81023 11.0501 9.29023 11.0501 9.58023 11.3401L10.6602 12.4201L14.4302 8.65012C14.7202 8.36012 15.2002 8.36012 15.4902 8.65012C15.7802 8.94012 15.7802 9.42012 15.4902 9.71012L11.1902 14.0101C11.0402 14.1601 10.8502 14.2301 10.6602 14.2301Z" fill="#DDDDDD"/>
</svg>
