<svg width="42" height="42" viewBox="0 0 42 42" fill="none" xmlns="http://www.w3.org/2000/svg">
    <path d="M37.2098 34.5857C34.688 30.228 30.7291 27.1703 26.129 25.8735C28.3655 24.7367 30.1539 22.8797 31.2059 20.602C32.2579 18.3244 32.5121 15.7588 31.9276 13.319C31.3431 10.8791 29.9539 8.70729 27.984 7.1536C26.0141 5.59991 23.5784 4.75494 21.0695 4.75494C18.5606 4.75494 16.1249 5.59991 14.155 7.1536C12.1851 8.70729 10.7959 10.8791 10.2114 13.319C9.62687 15.7588 9.8811 18.3244 10.9331 20.602C11.9851 22.8797 13.7735 24.7367 16.01 25.8735C11.4099 27.1687 7.45094 30.2264 4.92916 34.5857C4.85992 34.6946 4.81342 34.8164 4.79247 34.9438C4.77153 35.0712 4.77656 35.2015 4.80726 35.3268C4.83797 35.4522 4.89372 35.5701 4.97116 35.6733C5.0486 35.7766 5.14613 35.8631 5.25788 35.9277C5.36962 35.9923 5.49328 36.0336 5.62141 36.0492C5.74955 36.0647 5.8795 36.0542 6.00347 36.0183C6.12743 35.9823 6.24283 35.9216 6.34274 35.8399C6.44265 35.7582 6.525 35.6571 6.58483 35.5427C9.64892 30.2488 15.0625 27.089 21.0695 27.089C27.0765 27.089 32.4901 30.2488 35.5542 35.5427C35.614 35.6571 35.6963 35.7582 35.7962 35.8399C35.8962 35.9216 36.0116 35.9823 36.1355 36.0183C36.2595 36.0542 36.3894 36.0647 36.5176 36.0492C36.6457 36.0336 36.7694 35.9923 36.8811 35.9277C36.9929 35.8631 37.0904 35.7766 37.1678 35.6733C37.2453 35.5701 37.301 35.4522 37.3317 35.3268C37.3624 35.2015 37.3675 35.0712 37.3465 34.9438C37.3256 34.8164 37.2791 34.6946 37.2098 34.5857ZM11.8182 15.9236C11.8182 14.0939 12.3608 12.3052 13.3773 10.7839C14.3939 9.26249 15.8387 8.07672 17.5292 7.37651C19.2196 6.6763 21.0798 6.4931 22.8743 6.85006C24.6689 7.20703 26.3173 8.08813 27.6112 9.38194C28.905 10.6758 29.7861 12.3242 30.143 14.1188C30.5 15.9133 30.3168 17.7735 29.6166 19.4639C28.9164 21.1544 27.7306 22.5992 26.2092 23.6158C24.6879 24.6323 22.8992 25.1749 21.0695 25.1749C18.6168 25.172 16.2654 24.1963 14.5311 22.462C12.7968 20.7277 11.8211 18.3763 11.8182 15.9236Z" fill="white"/>
</svg>