<svg width="44" height="47" viewBox="0 0 44 47" fill="none" xmlns="http://www.w3.org/2000/svg">
    <path d="M22 0.0334473C22.839 0.0334912 23.6479 0.374494 24.2689 0.989957C24.89 1.60542 25.2787 2.45122 25.3592 3.36241L25.375 3.71593V42.9958C25.3746 43.9415 25.0407 44.8507 24.4426 45.5352C23.8445 46.2196 23.0279 46.6267 22.1622 46.6722C21.2965 46.7176 20.4479 46.3979 19.7923 45.7793C19.1367 45.1607 18.7244 44.2906 18.6408 43.3493L18.625 42.9958V3.71593C18.625 2.73928 18.9806 1.80262 19.6135 1.11202C20.2464 0.421422 21.1049 0.0334473 22 0.0334473ZM13 7.39841C13.8951 7.39841 14.7536 7.78639 15.3865 8.47699C16.0194 9.16759 16.375 10.1042 16.375 11.0809V35.6308C16.375 36.6074 16.0194 37.5441 15.3865 38.2347C14.7536 38.9253 13.8951 39.3133 13 39.3133C12.1049 39.3133 11.2464 38.9253 10.6135 38.2347C9.98058 37.5441 9.625 36.6074 9.625 35.6308V11.0809C9.625 10.1042 9.98058 9.16759 10.6135 8.47699C11.2464 7.78639 12.1049 7.39841 13 7.39841ZM31 7.39841C31.8951 7.39841 32.7535 7.78639 33.3865 8.47699C34.0194 9.16759 34.375 10.1042 34.375 11.0809V35.6308C34.375 36.6074 34.0194 37.5441 33.3865 38.2347C32.7535 38.9253 31.8951 39.3133 31 39.3133C30.1049 39.3133 29.2464 38.9253 28.6135 38.2347C27.9806 37.5441 27.625 36.6074 27.625 35.6308V11.0809C27.625 10.1042 27.9806 9.16759 28.6135 8.47699C29.2464 7.78639 30.1049 7.39841 31 7.39841ZM4 14.7634C4.89511 14.7634 5.75355 15.1514 6.38649 15.842C7.01942 16.5326 7.375 17.4692 7.375 18.4459V28.2658C7.375 29.2425 7.01942 30.1791 6.38649 30.8697C5.75355 31.5603 4.89511 31.9483 4 31.9483C3.10489 31.9483 2.24645 31.5603 1.61351 30.8697C0.980579 30.1791 0.625 29.2425 0.625 28.2658V18.4459C0.625 17.4692 0.980579 16.5326 1.61351 15.842C2.24645 15.1514 3.10489 14.7634 4 14.7634ZM40 14.7634C40.839 14.7634 41.6479 15.1044 42.2689 15.7199C42.89 16.3354 43.2787 17.1812 43.3592 18.0923L43.375 18.4459V28.2658C43.3746 29.2115 43.0407 30.1208 42.4426 30.8052C41.8445 31.4897 41.0279 31.8968 40.1622 31.9422C39.2965 31.9877 38.4479 31.668 37.7923 31.0493C37.1367 30.4307 36.7244 29.5606 36.6408 28.6193L36.625 28.2658V18.4459C36.625 17.4692 36.9806 16.5326 37.6135 15.842C38.2465 15.1514 39.1049 14.7634 40 14.7634Z" fill="#0A2412"/>
</svg>